<svg viewBox="0 0 600 600" version="1.1" xmlns="http://www.w3.org/2000/svg"
     style="fill-rule:evenodd;clip-rule:evenodd;stroke-linejoin:round;stroke-miterlimit:1.41421;">
    <g transform="matrix(0.908214,0,0,0.908214,-39.2523,-26.1022)" fill="#888">
        <g transform="matrix(-1,1.22465e-16,-1.22465e-16,-1,747.076,718.118)">
            <path d="M104.465,489.561L104.465,262.969L57.668,262.969L54.759,262.475C53.898,261.999 52.946,261.66 52.176,261.047C51.407,260.434 50.733,259.68 50.21,258.847C49.687,258.014 49.3,257.079 49.081,256.12C48.637,254.175 48.866,252.136 49.732,250.338C50.159,249.452 50.871,248.734 51.44,247.932L136.986,162.386C137.729,161.846 138.397,161.183 139.216,160.766C140.034,160.349 140.929,160.058 141.837,159.914C143.674,159.623 145.556,159.921 147.214,160.766C148.032,161.183 148.7,161.846 149.443,162.386L234.989,247.932C235.559,248.734 236.27,249.452 236.697,250.338C237.124,251.225 237.404,252.197 237.514,253.174C237.737,255.157 237.281,257.157 236.219,258.847C235.696,259.68 235.022,260.434 234.253,261.047C232.197,262.687 231.333,262.545 228.761,262.969L181.964,262.969L181.964,480.813L489.408,480.813C490.315,480.957 491.256,480.96 492.13,481.244C493.899,481.819 495.44,482.939 496.534,484.444C497.074,485.187 497.501,486.026 497.785,486.899C498.069,487.773 498.072,488.714 498.216,489.621L498.216,549.504C498.072,550.411 498.069,551.352 497.785,552.226C497.21,553.995 496.09,555.537 494.585,556.63C493.842,557.17 493.003,557.597 492.13,557.881C491.301,558.15 490.412,558.167 489.408,558.312L113.266,558.312C112.359,558.168 111.452,558.025 110.544,557.881C109.726,557.464 108.832,557.17 108.089,556.63C106.584,555.537 105.464,553.995 104.889,552.226C104.605,551.352 104.602,550.411 104.458,549.504L104.458,489.621L104.465,489.561Z"/>
        </g>
        <path d="M104.465,489.561L104.465,262.969L57.668,262.969L54.759,262.475C53.898,261.999 52.946,261.66 52.176,261.047C51.407,260.434 50.733,259.68 50.21,258.847C49.148,257.157 48.692,255.157 48.915,253.174C49.025,252.197 49.306,251.225 49.732,250.338C50.159,249.452 50.871,248.734 51.44,247.932L136.986,162.386C139.206,160.773 139.227,160.762 141.837,159.914C142.755,159.914 143.674,159.914 144.593,159.914C147.202,160.762 147.224,160.773 149.443,162.386L234.989,247.932C236.478,250.029 237.213,250.504 237.514,253.174C237.624,254.152 237.567,255.161 237.349,256.12C236.904,258.066 235.813,259.803 234.253,261.047C233.484,261.66 232.599,262.15 231.67,262.475C230.795,262.781 229.847,262.802 228.761,262.969L181.964,262.969L181.964,480.813L489.408,480.813C490.315,480.957 491.222,481.1 492.13,481.244C492.948,481.661 493.842,481.955 494.585,482.495C496.09,483.589 497.21,485.13 497.785,486.899C498.069,487.773 498.072,488.714 498.216,489.621L498.216,549.504C498.072,550.411 498.069,551.352 497.785,552.226C497.21,553.995 496.09,555.537 494.585,556.63C493.842,557.17 493.003,557.597 492.13,557.881C491.301,558.15 490.412,558.167 489.408,558.312L113.266,558.312C112.359,558.168 111.418,558.165 110.544,557.881C108.775,557.306 107.233,556.186 106.14,554.681C105.6,553.938 105.173,553.099 104.889,552.226C104.605,551.352 104.602,550.411 104.458,549.504L104.458,489.621L104.465,489.561Z"/>
    </g>
</svg>
